<svg xmlns="http://www.w3.org/2000/svg" viewBox="0 0 16 16" width="16" height="16">
  <!-- Symbolic icons use currentColor so the theme colours them automatically -->
  <!-- Document outline -->
  <path fill="currentColor" opacity="0.8"
    d="M3 1 C2.45 1 2 1.45 2 2 L2 14 C2 14.55 2.45 15 3 15 L13 15
       C13.55 15 14 14.55 14 14 L14 5 L10 1 Z
       M3 2 L9.5 2 L9.5 5.5 L13 5.5 L13 14 L3 14 Z"/>
  <!-- Folded corner -->
  <path fill="currentColor" opacity="0.5" d="M10 1 L14 5 L10 5 Z"/>
  <!-- Title bar -->
  <rect fill="currentColor" x="4" y="7" width="8" height="1.2" rx="0.6"/>
  <!-- Text lines -->
  <rect fill="currentColor" opacity="0.6" x="4" y="9.2" width="8" height="0.9" rx="0.45"/>
  <rect fill="currentColor" opacity="0.6" x="4" y="10.9" width="6" height="0.9" rx="0.45"/>
  <rect fill="currentColor" opacity="0.6" x="4" y="12.6" width="7" height="0.9" rx="0.45"/>
</svg>
